<?xml version="1.0" encoding="UTF-8"?>
<svg xmlns="http://www.w3.org/2000/svg" id="31912a40-c013-4c73-ba34-d5223ce56232" data-name="Layer 1" viewBox="0 0 50 50">
  <title>amazon-ca-icon-color</title>
  <rect width="50" height="50" rx="3" ry="3" fill="#f8991d"/>
  <path d="M40.74,37.76c-.5-.64-3.29-.3-4.55-.15-.38,0-.44-.29-.09-.53,2.23-1.57,5.87-1.12,6.3-.59s-.12,4.19-2.2,5.93c-.32.27-.63.13-.49-.23C40.18,41,41.23,38.4,40.74,37.76Zm-1.62,1.85A25.48,25.48,0,0,1,24.73,44,26.06,26.06,0,0,1,7.16,37.3c-.37-.33,0-.78.39-.53a35.33,35.33,0,0,0,17.59,4.67A35,35,0,0,0,38.55,38.7C39.21,38.42,39.76,39.13,39.12,39.61ZM36.84,29.46c.3.45.38,1,0,1.3-1,.84-2.79,2.39-3.76,3.26h0a1,1,0,0,1-1.16.11,12.2,12.2,0,0,1-2.81-3.26C26.4,33.6,24.49,34.42,21,34.42c-4.13,0-7.33-2.55-7.33-7.64a8.31,8.31,0,0,1,5.22-8c2.66-1.16,6.37-1.38,9.21-1.7v-.63a6.24,6.24,0,0,0-.6-3.55,3.27,3.27,0,0,0-2.75-1.28,3.73,3.73,0,0,0-3.93,3,1.05,1.05,0,0,1-.85.9l-4.75-.52a.87.87,0,0,1-.74-1c1.1-5.76,6.29-7.5,11-7.5,2.39,0,5.5.64,7.38,2.44C35.21,11.08,35,14.05,35,17.29v7.63C35,27.22,35.94,28.23,36.84,29.46Zm-9.65-2.2a4,4,0,0,1-3.39,2.22c-1.88,0-3-1.43-3-3.54,0-4.18,3.75-4.94,7.29-4.94v1.06c0,1.91.05,3.5-.92,5.2" fill="#fff" fill-rule="evenodd"/>
</svg>