<?xml version="1.0" encoding="UTF-8"?>
<svg xmlns="http://www.w3.org/2000/svg" id="0fa6608e-2da2-42b2-a94e-57f58a433fa8" data-name="Layer 1" viewBox="0 0 50 50">
  <title>shipstation-icon-color</title>
  <path d="M28.81,50H21.2l-1-6.65a18.91,18.91,0,0,1-4.77-2l-5.41,4L4.63,40l4-5.41a18.62,18.62,0,0,1-2-4.77L0,28.81V21.19l6.64-1a19.38,19.38,0,0,1,2-4.77L4.63,10,10,4.63l5.41,4a18.55,18.55,0,0,1,4.77-2L21.2,0h7.61l1,6.65a18.55,18.55,0,0,1,4.77,2l5.41-4L45.37,10l-4,5.41a18.62,18.62,0,0,1,2,4.77l6.65,1v7.62l-6.65,1a18.7,18.7,0,0,1-2,4.76l4,5.42L40,45.37l-5.41-4a18.55,18.55,0,0,1-4.77,2l-1,6.65ZM25,16.64A8.36,8.36,0,1,0,33.36,25,8.37,8.37,0,0,0,25,16.64Z" fill="#9fc848"/>
</svg>