<?xml version="1.0" encoding="UTF-8"?>
<svg xmlns="http://www.w3.org/2000/svg" id="dfb521b2-b53b-410f-963f-bf3356008b0d" data-name="Layer 1" viewBox="0 0 50 50">
  <title>shopify-icon-color</title>
  <path d="M41.53,9.74a.48.48,0,0,0-.44-.41l-4-.3-3-2.94A1.18,1.18,0,0,0,33,6l-1.49.46c-.89-2.57-2.46-4.92-5.23-4.92h-.24A3.35,3.35,0,0,0,23.45,0C17,0,13.92,8.06,13,12.16l-4.51,1.4C7,14,7,14,6.81,15.36L3,44.66,31.53,50,47,46.66S41.56,10,41.53,9.74ZM29.94,6.9l-2.41.74V7.12A11.93,11.93,0,0,0,27,3.23C28.38,3.41,29.33,5,29.94,6.9ZM25.19,3.54a12.16,12.16,0,0,1,.65,4.35v.28l-5,1.54C21.82,6,23.62,4.22,25.19,3.54ZM23.27,1.73A1.43,1.43,0,0,1,24.1,2C22,3,19.82,5.43,18.88,10.32l-3.94,1.22C16,7.81,18.64,1.73,23.27,1.73Z" fill="#95bf47"/>
  <path d="M41.09,9.33l-4-.3-3-2.94a.71.71,0,0,0-.41-.19L31.53,50,47,46.66S41.56,10,41.53,9.74A.48.48,0,0,0,41.09,9.33Z" fill="#5e8e3e"/>
  <path d="M26.29,17.87l-1.91,5.66a8.77,8.77,0,0,0-3.71-.89c-3,0-3.15,1.89-3.15,2.36,0,2.59,6.74,3.58,6.74,9.64,0,4.77-3,7.84-7.1,7.84a9.89,9.89,0,0,1-7.4-3l1.31-4.33s2.57,2.21,4.75,2.21a1.92,1.92,0,0,0,2-1.94c0-3.37-5.53-3.52-5.53-9.07,0-4.67,3.35-9.19,10.11-9.19A8.32,8.32,0,0,1,26.29,17.87Z" fill="#fff"/>
</svg>